<svg xmlns="http://www.w3.org/2000/svg" width="500" height="500" viewBox="0 0 31 20" aria-hidden="true">
    <defs>
        <linearGradient id="youtubeGradient" x1="0%" y1="0%" x2="100%" y2="100%">
            <stop offset="0%" stop-color="#ff7ba8" />
            <stop offset="100%" stop-color="#ff2525" />
        </linearGradient>
        <linearGradient id="youtubeTweakGradient" x1="0%" y1="0%" x2="100%" y2="100%">
            <stop offset="0%" stop-color="#d232ed" />
            <stop offset="100%" stop-color="#ff7191" />
        </linearGradient>
    </defs>
    <g transform="translate(1, 0)">
        <path d="M14.4848 20C14.4848 20 23.5695 20 25.8229 19.4C27.0917 19.06 28.0459 18.08 28.3808 16.87C29 14.65 29 9.98 29 9.98C29 9.98 29 5.34 28.3808 3.14C28.0459 1.9 27.0917 0.94 25.8229 0.61C23.5695 0 14.4848 0 14.4848 0C14.4848 0 5.42037 0 3.17711 0.61C1.9286 0.94 0.954148 1.9 0.59888 3.14C0 5.34 0 9.98 0 9.98C0 9.98 0 14.65 0.59888 16.87C0.954148 18.08 1.9286 19.06 3.17711 19.4C5.42037 20 14.4848 20 14.4848 20Z" fill="url(#youtubeGradient)" />
        <polygon points="18.15,10 12.15,6.6 12.15,13.4" fill="white" stroke="white" stroke-width="2" stroke-linejoin="round" />

        <g transform="translate(20,12) scale(0.25)">
            <rect x="0" y="0" width="40" height="40" rx="8" fill="url(#youtubeTweakGradient)" />
            <rect x="6" y="12" width="28" height="3" rx="2" fill="white" />
            <circle cx="16" cy="13.5" r="4" fill="white" />
            <rect x="6" y="24" width="28" height="3" rx="2" fill="white" />
            <circle cx="25" cy="25.5" r="4" fill="white" />
        </g>
    </g>
</svg>
